<svg id="Camada_1" data-name="Camada 1" xmlns="http://www.w3.org/2000/svg" viewBox="0 0 370 432.48"><defs><style>.cls-1{fill:#6d22bc;}</style></defs><title>Prancheta 1 cópia 57</title><path class="cls-1" d="M361.83,42C265.45-6.92,174.43-4.33,115,6.46,50.66,18.16,9.27,41.31,7.54,42.29.69,46.16-2,55.35,1.57,62.83A14.06,14.06,0,0,0,12,70.89a12.91,12.91,0,0,0,8.42-1.53c.39-.22,39.94-22.21,100.26-33C175.91,26.48,260.54,24.23,350,69.65a13,13,0,0,0,5.89,1.43,12.81,12.81,0,0,0,1.76-.13,14.12,14.12,0,0,0,10.93-8.69C371.87,54.62,368.84,45.55,361.83,42Z"/><path class="cls-1" d="M368.43,369.65a14.05,14.05,0,0,0-10.56-8.09,12.92,12.92,0,0,0-8.29,1.55c-.39.22-39.94,22.21-100.26,33C194.09,406,109.46,408.25,20,362.83a12.88,12.88,0,0,0-8.1-1.24,14.18,14.18,0,0,0-10.48,8.63c-3.26,7.64-.23,16.71,6.78,20.26a384.22,384.22,0,0,0,175.21,42A401.33,401.33,0,0,0,255,426c64.39-11.7,105.78-34.84,107.51-35.82C369.31,386.31,372,377.12,368.43,369.65Z"/></svg>