<svg id="Camada_1" data-name="Camada 1" xmlns="http://www.w3.org/2000/svg" viewBox="0 0 370 432.48"><defs><style>.cls-1{fill:#e20ad3;}</style></defs><title>Prancheta 1 cópia 28</title><path class="cls-1" d="M20,362.83c89.49,45.42,174.12,43.17,229.36,33.28,60.32-10.79,99.86-32.78,100.26-33a12.92,12.92,0,0,1,8.29-1.55C346.49,197.94,355,96.44,357.68,70.95a12.81,12.81,0,0,1-1.76.13A13,13,0,0,1,350,69.65C260.54,24.23,175.91,26.48,120.67,36.36c-60.32,10.79-99.86,32.78-100.26,33A12.91,12.91,0,0,1,12,70.89c7.5,123.87,1.28,262.65-.13,290.7A12.88,12.88,0,0,1,20,362.83Z"/></svg>