<svg id="Camada_1" data-name="Camada 1" xmlns="http://www.w3.org/2000/svg" viewBox="0 0 370 432.48"><defs><style>.cls-1{fill:#7c7c7c;}</style></defs><title>Prancheta 1 cópia 34</title><path class="cls-1" d="M302.18,367a6.44,6.44,0,0,0-1.47-.81c-3-1.18-6.23-2.35-9.6-3.49A180.45,180.45,0,0,0,339,306.53q8.11,1.7,15.94,3.59-.33-7-.61-13.74-4.59-1.07-9.26-2.08a180.07,180.07,0,0,0,8.36-22.46c-1.28-41.21-1.25-76.58-.61-105.75q-1.68-5.39-3.69-10.7l4-.91q.21-7.13.46-13.69-4.81,1.14-9.72,2.22a180.8,180.8,0,0,0-44.49-59c4.58-1.76,8.94-3.61,13-5.54a5.73,5.73,0,0,0,.73-.41,227,227,0,0,1,42.32,27.2c.44-6.66.88-12.46,1.28-17.38C308.4,57,246.42,39.34,185.25,39.34c-61.5,0-123.83,17.81-172.2,49q.46,8.91.84,17.88A226.29,226.29,0,0,1,57,78.22c4.34,2.08,9,4.07,13.91,5.94A180.77,180.77,0,0,0,26.5,143.35q-5.78-1.25-11.45-2.6.18,6.85.31,13.67,2.93.68,5.89,1.33a180.3,180.3,0,0,0-5.59,17.41c.41,32.92.19,64.53-.31,92.41a179.73,179.73,0,0,0,9.95,28.37q-5.37,1.14-10.63,2.37-.19,7.12-.39,13.69,8.39-2,17.07-3.81A180.45,180.45,0,0,0,79.2,362.53c-3.68,1.23-7.15,2.49-10.35,3.75a5.9,5.9,0,0,0-1,.5,231.25,231.25,0,0,1-54.38-33.46c-.26,6.88-.51,12.94-.73,18,48.41,31.33,110.87,49.22,172.51,49.22,61.42,0,123.66-17.76,172-48.89q-.58-9-1.08-17.64A232,232,0,0,1,302.18,367Zm-27-9.08c-5.64-1.5-11.57-2.87-17.67-4.09,1.91-2.81,3.75-5.71,5.48-8.63a206.67,206.67,0,0,0,20.24-47.86c14.36,1.77,28.51,4,42.11,6.49A166.33,166.33,0,0,1,275.17,357.91Zm56.56-66.34c-14.62-2.82-29.8-5.23-45.17-7.17a282.71,282.71,0,0,0,7-54.09h53.84A166.47,166.47,0,0,1,331.73,291.57ZM297,70.69c-3.13,1.25-6.4,2.46-9.78,3.6a175.34,175.34,0,0,0-25.56-15.48A273.37,273.37,0,0,1,297,70.69Zm-26.1,8.49c-5,1.32-10.33,2.53-15.75,3.62a126,126,0,0,0-17.52-19.74A160.32,160.32,0,0,1,270.89,79.18Zm-79-24.54c17.48,2.16,34.23,12.75,48.65,30.74a366.84,366.84,0,0,1-49.39,4.07Zm-13.24,0-.74,34.79a367.35,367.35,0,0,1-48-4C144.35,67.43,161.12,56.81,178.63,54.64ZM115.27,82.92c-5.43-1.08-10.75-2.29-15.86-3.62a160.34,160.34,0,0,1,33.46-16.24A126.09,126.09,0,0,0,115.27,82.92Zm-6.41-24.11A175.29,175.29,0,0,0,83.07,74.46c-3.39-1.15-6.71-2.36-9.89-3.63A273.07,273.07,0,0,1,108.86,58.81ZM23.12,230.31H77a283,283,0,0,0,6.94,53.87c-15.4,1.9-30.61,4.27-45.27,7.07A166.53,166.53,0,0,1,23.12,230.31ZM45,303.52c13.62-2.51,27.81-4.66,42.22-6.4a206.82,206.82,0,0,0,20.3,48.07c1.7,2.88,3.51,5.74,5.39,8.51-6.11,1.21-12.08,2.58-17.78,4.08A166.36,166.36,0,0,1,45,303.52ZM86.3,374.13c2.16-.69,4.36-1.36,6.6-2a174.93,174.93,0,0,0,16,9C101.18,379.07,93.64,376.74,86.3,374.13Zm25.06-6.61c3.39-.72,6.89-1.4,10.46-2a118.46,118.46,0,0,0,10.75,11.24A160.15,160.15,0,0,1,111.35,367.52Zm66.74-4.92L177,385c-13.89-2.11-27.49-9.66-39.57-21.94a369.93,369.93,0,0,1,38.4-2.87,6.59,6.59,0,0,0,3.23-.93A7.41,7.41,0,0,0,178.09,362.6Zm8.85-6.83a7.41,7.41,0,0,0-5.46,1,6.6,6.6,0,0,0-5.79-9.74h-.2a378.05,378.05,0,0,0-48.26,4.18c-11.07-14.87-20.26-34-26.66-55.56,12.88-1.32,25.94-2.34,38.85-3a6.62,6.62,0,0,0-.71-13.22c-13.94.74-27.93,1.85-41.59,3.3a269.82,269.82,0,0,1-6.92-52.36l12.4.1-6.78-11.68-5.81.07c0-8.93.49-17.87,1.34-26.6a6.62,6.62,0,0,0-13.17-1.29c-.9,9.15-1.37,18.53-1.4,27.89h-54a167.24,167.24,0,0,1,11.59-60.32c9.73,1.92,19.78,3.67,29.91,5.2a6.62,6.62,0,0,0,2-13.09c-8.84-1.33-17.72-2.86-26.42-4.53A167,167,0,0,1,85.61,89.15c6.94,2.11,14.29,4,21.88,5.66A188.26,188.26,0,0,0,95.92,118a6.62,6.62,0,1,0,12.21,5.1,171.17,171.17,0,0,1,13.23-25.62,375.32,375.32,0,0,0,56.25,5.17l-.29,13.9a6.63,6.63,0,0,0,6.47,6.76h.15a6.65,6.65,0,0,0,6.62-6.48l.3-14.15a375.29,375.29,0,0,0,58.22-5.31,171.2,171.2,0,0,1,13.3,25.73,6.62,6.62,0,0,0,12.21-5.1,188,188,0,0,0-11.65-23.34c7.6-1.66,14.92-3.57,21.78-5.67a166.93,166.93,0,0,1,45.78,56.75c-8.63,1.68-17.46,3.22-26.28,4.58a6.62,6.62,0,1,0,2,13.08c10.09-1.55,20.1-3.31,29.76-5.25a167.24,167.24,0,0,1,11.71,60.65h-54c0-9.36-.51-18.74-1.4-27.89a6.64,6.64,0,0,0-7.23-5.94c-3.63.36-5.85,5.75-5.5,9.38a241.9,241.9,0,0,1,.9,24.45h-6.2l-6.65,11.5H280.3a269.74,269.74,0,0,1-7,52.54c-13.49-1.46-27.28-2.58-41-3.35a6.53,6.53,0,0,0-4.78,1.63,6.63,6.63,0,0,0,4,11.58c12.73.71,25.61,1.75,38.3,3.09-6.41,21.5-15.6,40.62-26.67,55.46A378.06,378.06,0,0,0,193.34,347a6.48,6.48,0,0,0-4.7,1.8,6.62,6.62,0,0,0-1.71,7Zm4.73,29.53,1.1-22a7.28,7.28,0,0,0-.55-3.19,6.78,6.78,0,0,0,.84.07,370,370,0,0,1,40,3C220.41,376,206.2,383.59,191.67,385.3Zm46.27-8.58a118.58,118.58,0,0,0,10.66-11.14c3.44.61,6.9,1.3,10.34,2A160.15,160.15,0,0,1,237.95,376.72Zm23.7,4.36a175.21,175.21,0,0,0,15.75-8.82c2.19.64,4.36,1.3,6.48,2C276.64,376.81,269.21,379.09,261.65,381.08Z"/><path class="cls-1" d="M60.17,116.37V157.3l125.7,216.57L310.79,157.81l.29-.51V116.37Zm12,40.25-.29-27.54,226.72.46.52,27.11L185.84,350.54Z"/><path class="cls-1" d="M229.89,156.14c-17.67.29-44.65-7.52-44.65-7.52s-25.69,7.51-42.55,7.52-42.64-7.52-42.64-7.52,3.46,37,14.18,57.52c16.81,32.25,71,61.64,71,61.64s54.2-29.4,71-61.66c10.71-20.56,14.17-57.5,14.17-57.5S246,155.87,229.89,156.14Zm18.26,48.61c-14.93,28.53-62.86,54.58-62.86,54.58s-47.92-26.05-62.85-54.56c-8.64-16.5-12.55-45.91-12.55-45.91s22.93,4.62,37.73,4.14,37.66-6.65,37.66-6.65,23.88,6.36,39.51,6.65c14.09.26,35.88-4.15,35.88-4.15S256.76,188.26,248.15,204.75Z"/><path class="cls-1" d="M241.09,173.86s-3.94,20-10.17,31.28c-11.34,20.47-45.67,39.66-45.67,39.66s-34.32-19.18-45.67-39.64c-6.24-11.26-10.18-31.29-10.18-31.29s17.38,2.78,28.49,2c10.9-.79,27.36-5.87,27.36-5.87s17.3,5.19,28.72,5.87C224.56,176.46,241.09,173.86,241.09,173.86Z"/></svg>