<svg id="Camada_1" data-name="Camada 1" xmlns="http://www.w3.org/2000/svg" viewBox="0 0 370 432.48"><defs><style>.cls-1{fill:#2831d1;}</style></defs><title>Prancheta 1 cópia 55</title><circle class="cls-1" cx="132.49" cy="231.86" r="9.96"/><circle class="cls-1" cx="142.45" cy="201.29" r="9.96"/><circle class="cls-1" cx="162.38" cy="239.08" r="9.96"/><path class="cls-1" d="M126.08,234.12h0a5.17,5.17,0,0,1,2.52-6.84l141.55-66.95a5.17,5.17,0,0,1,6.84,2.52h0a5.17,5.17,0,0,1-2.52,6.84L132.92,236.64A5.17,5.17,0,0,1,126.08,234.12Z"/><path class="cls-1" d="M141.1,198.39h0a5.17,5.17,0,0,1,7,2.19l18.71,35.09a5.17,5.17,0,0,1-2.19,7h0a5.17,5.17,0,0,1-7-2.19l-18.71-35.09A5.17,5.17,0,0,1,141.1,198.39Z"/></svg>